<?xml version="1.0" encoding="UTF-8"?>
<svg width="100px" height="100px" viewBox="0 0 100 100" version="1.1" xmlns="http://www.w3.org/2000/svg" xmlns:xlink="http://www.w3.org/1999/xlink">
    <title>Account_Icon_White@1x</title>
    <g id="Account_Icon_White" stroke="none" stroke-width="1" fill="none" fill-rule="evenodd">
        <rect fill="#FFFFFF" opacity="0" x="0" y="0" width="100" height="100"></rect>
        <g id="Account/16/black" transform="translate(0.000000, 12.000000)" fill="#FFFFFF">
            <path d="M71.8802632,56.0000097 C71.1857895,56.0000097 70.4918421,56.0445802 69.8021053,56.1318529 L69.52,56.167616 C63.0384211,56.9893672 56.5192105,57.4001094 50,57.4001094 C43.4807895,57.4001094 36.9615789,56.9893672 30.48,56.167616 L30.4331579,56.1617444 C29.6421053,56.0613942 28.8455263,56.006415 28.0489474,56.006415 C27.6484211,56.006415 27.2481579,56.0202933 26.8486842,56.0493842 C11.8410526,57.1398926 0,69.8331331 0,85.3311101 L0,85.8648881 C0,87.0442705 0.942631579,88.0000097 2.10526316,88.0000097 L97.8947368,88.0000097 C99.0573684,88.0000097 100,87.0442705 100,85.8648881 L100,85.3311101 C100,69.751732 88.0342105,57.0069819 72.915,56.0331039 C72.5705263,56.0109521 72.2252632,56.0000097 71.8802632,56.0000097 M48.8157895,0 C36.5347558,0 26.5789474,11.3421359 26.5789474,25.333339 C26.5789474,39.3245421 36.5347558,50.666678 48.8157895,50.666678 C61.0968231,50.666678 71.0526316,39.3245421 71.0526316,25.333339 C71.0526316,11.3421359 61.0968231,0 48.8157895,0"></path>
        </g>
    </g>
</svg>