<?xml version="1.0" encoding="UTF-8"?>
<svg width="200px" height="200px" viewBox="0 0 200 200" version="1.1" xmlns="http://www.w3.org/2000/svg" xmlns:xlink="http://www.w3.org/1999/xlink">
    <title>facebook-circle</title>
    <defs>
        <polygon id="path-1" points="0 0 200 0 200 198.785109 0 198.785109"></polygon>
    </defs>
    <g id="Prototypes-09.11.23" stroke="none" stroke-width="1" fill="none" fill-rule="evenodd">
        <g id="Icons" transform="translate(-373.000000, -268.000000)">
            <g id="facebook-circle" transform="translate(373.000000, 268.000000)">
                <g id="Fill-1-Clipped" transform="translate(0.000000, 0.000000)">
                    <mask id="mask-2" fill="white">
                        <use xlink:href="#path-1"></use>
                    </mask>
                    <g id="path-1"></g>
                    <path d="M200,99.9960936 C200,44.7654205 155.225892,-0.00781280519 99.9941403,-0.00781280519 C44.7623884,-0.00781280519 -0.0117194367,44.7654205 -0.0117194367,99.9960936 C-0.0117194367,149.910934 36.5589781,191.282863 84.3682247,198.785109 L84.3682247,128.903473 L58.9761119,128.903473 L58.9761119,99.9960936 L84.3682247,99.9960936 L84.3682247,77.963983 C84.3682247,52.9005039 99.2983964,39.0562131 122.141922,39.0562131 C133.083384,39.0562131 144.528,41.0094144 144.528,41.0094144 L144.528,65.6197508 L131.917495,65.6197508 C119.494306,65.6197508 115.620056,73.3284503 115.620056,81.2369624 L115.620056,99.9960936 L143.356056,99.9960936 L138.922202,128.903473 L115.620056,128.903473 L115.620056,198.785109 C163.429302,191.282863 200,149.910934 200,99.9960936" id="Fill-1" fill="#1877F2" fill-rule="nonzero" mask="url(#mask-2)"></path>
                </g>
                <path d="M138.922202,128.903473 L143.356056,99.9960936 L115.620056,99.9960936 L115.620056,81.2369624 C115.620056,73.3284503 119.494306,65.6197508 131.917495,65.6197508 L144.528,65.6197508 L144.528,41.0094144 C144.528,41.0094144 133.083384,39.0562131 122.141922,39.0562131 C99.2983964,39.0562131 84.3682247,52.9005039 84.3682247,77.963983 L84.3682247,99.9960936 L58.9761119,99.9960936 L58.9761119,128.903473 L84.3682247,128.903473 L84.3682247,198.785109 C89.459734,199.583968 94.6782038,200 99.9941403,200 C105.310077,200 110.528547,199.583968 115.620056,198.785109 L115.620056,128.903473 L138.922202,128.903473" id="Fill-4" fill="#FFFFFF" fill-rule="nonzero"></path>
            </g>
        </g>
    </g>
</svg>