<svg width="64" height="64" viewBox="0 0 64 64" fill="none" xmlns="http://www.w3.org/2000/svg">
<path fill-rule="evenodd" clip-rule="evenodd" d="M31.6855 10.4723C24.3561 10.4723 18.3932 16.1864 18.3932 23.21C18.3932 30.2337 24.3561 35.9478 31.6855 35.9478C39.0149 35.9478 44.9778 30.2337 44.9778 23.21C44.9778 16.1864 39.0149 10.4723 31.6855 10.4723ZM31.9693 61.877C31.9693 61.877 31.9501 61.8652 31.9198 61.8305C26.0808 55.1488 20.7585 47.8662 16.9334 41.3245C12.5383 33.8078 10.2153 27.471 10.2153 22.9986C10.2153 11.4878 19.9879 2.12292 31.9999 2.12292C44.0121 2.12292 53.7845 11.4878 53.7845 22.9986C53.7845 32.3046 42.3744 50.9012 32.1343 61.7709C32.0531 61.8572 31.9883 61.877 31.9693 61.877Z" fill="white"/>
<path fill-rule="evenodd" clip-rule="evenodd" d="M31.6854 33.8249C25.5678 33.8249 20.6085 29.0724 20.6085 23.2101C20.6085 17.3477 25.5678 12.5953 31.6854 12.5953C37.803 12.5953 42.7623 17.3477 42.7623 23.2101C42.7623 29.0724 37.803 33.8249 31.6854 33.8249ZM32 0C18.7452 0 8 10.2969 8 22.9987C8 33.583 19.2615 50.6521 30.2212 63.1936C30.6948 63.7353 31.3286 64 31.9686 64C32.6192 64 33.2762 63.7267 33.7786 63.1936C43.3874 52.9942 56 33.583 56 22.9987C56 10.2969 45.2546 0 32 0ZM31.6854 38.0708C40.2364 38.0708 47.1931 31.4043 47.1931 23.2101C47.1931 15.0158 40.2364 8.3494 31.6854 8.3494C23.1344 8.3494 16.1777 15.0158 16.1777 23.2101C16.1777 31.4043 23.1344 38.0708 31.6854 38.0708ZM32 4.24591C42.7904 4.24591 51.5692 12.6583 51.5692 22.9987C51.5692 31.1243 41.5671 47.9192 32.0489 58.6422C26.9164 52.5755 22.2809 46.127 18.8661 40.2868C13.5471 31.1901 12.4308 25.8645 12.4308 22.9987C12.4308 12.6583 21.2094 4.24591 32 4.24591Z" fill="white"/>
</svg>
