<?xml version="1.0" encoding="UTF-8"?>
<svg width="100px" height="100px" viewBox="0 0 100 100" version="1.1" xmlns="http://www.w3.org/2000/svg" xmlns:xlink="http://www.w3.org/1999/xlink">
    <title>Search_Icon_White@1x</title>
    <defs>
        <polygon id="path-1" points="0 0 100 0 100 100 0 100"></polygon>
    </defs>
    <g id="Search_Icon_White" stroke="none" stroke-width="1" fill="none" fill-rule="evenodd">
        <rect fill="#FFFFFF" opacity="0" x="0" y="0" width="100" height="100"></rect>
        <g id="Group-3">
            <mask id="mask-2" fill="white">
                <use xlink:href="#path-1"></use>
            </mask>
            <g id="Clip-2"></g>
            <path d="M41.3568595,-0.000147703287 C18.5160568,-0.000147703287 0,18.5159364 0,41.3567729 C0,64.1976093 18.5160568,82.7136934 41.3568595,82.7136934 C51.5011063,82.7136934 60.7916294,79.0624682 67.9877229,73.0007252 L93.9480144,98.9610551 C94.6407418,99.6537835 95.5476387,100 96.4545355,100 C97.3614324,100 98.2683292,99.6537835 98.9610566,98.9610551 C100.346511,97.5755982 100.346511,95.3334623 98.9610566,93.9480055 L73.0007651,67.9876756 C79.0624991,60.7915715 82.713719,51.5010347 82.713719,41.3567729 C82.713719,18.5159364 64.1976622,-0.000147703287 41.3568595,-0.000147703287 M41.3568595,7.08961011 C50.5100187,7.08961011 59.1151995,10.6539858 65.5872526,17.1263439 C72.0596011,23.5984066 75.6239716,32.2036001 75.6239716,41.3567729 C75.6239716,49.4255081 72.7668034,57.2608721 67.5785854,63.4200992 L65.6773515,65.6770054 L63.4201532,67.5782421 C57.2609352,72.7667632 49.4252874,75.6239356 41.3568595,75.6239356 C32.2037003,75.6239356 23.5985194,72.0595599 17.1264663,65.5872018 C10.6541178,59.1151391 7.08974734,50.5099456 7.08974734,41.3567729 C7.08974734,32.2036001 10.6541178,23.5984066 17.1264663,17.1263439 C23.5985194,10.6539858 32.2037003,7.08961011 41.3568595,7.08961011" id="Fill-1" fill="#FFFFFF" mask="url(#mask-2)"></path>
        </g>
    </g>
</svg>