<?xml version="1.0" encoding="UTF-8"?>
<svg width="22px" height="21px" viewBox="0 0 22 21" version="1.1" xmlns="http://www.w3.org/2000/svg" xmlns:xlink="http://www.w3.org/1999/xlink">
    <title>Icons/Search</title>
    <g id="Navigation-Search" stroke="none" stroke-width="1" fill="none" fill-rule="evenodd">
        <g id="320-XS-Mobile-Search" transform="translate(-31.000000, -202.000000)" fill="#6B696B">
            <g id="Search" transform="translate(15.000000, 92.000000)">
                <g transform="translate(15.000000, 110.000000)" id="search">
                    <g>
                        <g transform="translate(0.285037, 0.000000)">
                            <path d="M15.8008227,7.81547424 L14.8447541,7.81547424 L14.5124179,8.14538334 C15.6864317,9.51438568 16.4004728,11.2891521 16.4004728,13.2336893 C16.4004728,17.5562209 12.8964934,21.06 8.57371467,21.06 C4.25093594,21.06 0.746956522,17.5562209 0.746956522,13.2336893 C0.746956522,8.91115774 4.25093594,5.40737865 8.57371467,5.40737865 C10.518363,5.40737865 12.2920268,6.12017495 13.6611075,7.2929175 L13.9934437,6.9630084 L13.9934437,6.00940255 L20.0116186,0 L21.8069565,1.79523526 L15.8008227,7.81547424 L15.8008227,7.81547424 Z M8.57371467,7.81547424 C5.58028071,7.81547424 3.1551898,10.2404265 3.1551898,13.2336893 C3.1551898,16.2257481 5.58028071,18.6519044 8.57371467,18.6519044 C11.5659445,18.6519044 13.9922395,16.2257481 13.9922395,13.2336893 C13.9922395,10.2404265 11.5659445,7.81547424 8.57371467,7.81547424 L8.57371467,7.81547424 Z" id="Shape" transform="translate(11.276957, 10.530000) scale(1, -1) translate(-11.276957, -10.530000) "></path>
                        </g>
                    </g>
                </g>
            </g>
        </g>
    </g>
</svg>