<?xml version="1.0" encoding="UTF-8"?>
<svg width="200px" height="200px" viewBox="0 0 200 200" version="1.1" xmlns="http://www.w3.org/2000/svg" xmlns:xlink="http://www.w3.org/1999/xlink">
    <title>Threads Logo</title>
    <g id="Prototypes-09.11.23" stroke="none" stroke-width="1" fill="none" fill-rule="evenodd">
        <g id="Icons-" transform="translate(-1453.000000, -310.000000)">
            <g id="Threads-Logo" transform="translate(1453.000000, 310.000000)">
                <circle id="Oval" fill="#000000" cx="100" cy="100" r="100"></circle>
                <g id="Threads_(app)_logo" transform="translate(45.000000, 36.000000)" fill="#FFFFFF" fill-rule="nonzero">
                    <path d="M85.595881,58.8620526 C85.0451618,58.5998505 84.4857855,58.3475042 83.9190842,58.1058734 C82.9321847,40.0434969 72.9959318,29.7027865 56.3118038,29.5969531 C56.2362214,29.5964901 56.1610386,29.5964901 56.0854562,29.5964901 C46.1061846,29.5964901 37.8065733,33.8275745 32.6982032,41.5268172 L41.8739708,47.7789875 C45.6901153,42.027938 51.6791699,40.801925 56.0898513,40.801925 C56.1407945,40.801925 56.1919375,40.801925 56.2423479,40.802388 C61.7358219,40.8371807 65.8811991,42.4236885 68.5642072,45.5175937 C70.5166965,47.7700578 71.8225736,50.8826823 72.4691859,54.810951 C67.5986173,53.9886922 62.331158,53.7358828 56.7001041,54.0565578 C40.8375932,54.9641448 30.6398985,64.1534547 31.3248014,76.9223125 C31.6723472,83.3993125 34.920858,88.9714375 40.4715348,92.6114427 C45.164568,95.6885469 51.2088943,97.1933646 57.4907558,96.8527135 C65.7866379,96.4009375 72.2947138,93.257026 76.834984,87.5082917 C80.2831388,83.1426667 82.4640401,77.4852135 83.4269663,70.3566771 C87.3805574,72.7266823 90.3106233,75.8454583 91.9288188,79.5946042 C94.680417,85.9677552 94.8409047,96.440625 86.2378318,104.978729 C78.7002373,112.4585 69.6396745,115.694354 55.9466111,115.794234 C40.7573494,115.682448 29.269893,110.84388 21.8010885,101.412807 C14.8071544,92.5816771 11.1926518,79.8261146 11.0578022,63.5 C11.1926518,47.1737531 14.8071544,34.4180583 21.8010885,25.5869943 C29.269893,16.1560536 40.7571496,11.3175521 55.9464113,11.2054349 C71.2458834,11.318412 82.9335166,16.1801969 90.6882022,25.6566458 C94.4906286,30.3037875 97.3574317,36.1479042 99.2473242,42.9619172 L110,40.1122885 C107.709221,31.7249969 104.104574,24.4975724 99.1993777,18.5036354 C89.2577974,6.35441854 74.7180114,0.129082271 55.9839028,0 L55.9089198,0 C37.212902,0.128633802 22.8359345,6.37764896 13.1775051,18.573287 C4.58282279,29.4259 0.149433359,44.5265307 0,63.4553516 L0,63.5 L0,63.5446484 C0.149433359,82.4732708 4.58282279,97.5743646 13.1775051,108.426911 C22.8359345,120.622219 37.212902,126.871677 55.9089198,127 L55.9839028,127 C72.6057003,126.885568 84.3219682,122.562938 93.9738716,112.984359 C106.60179,100.453031 106.221547,84.7453802 102.059522,75.1026406 C99.073518,68.1877552 93.3805332,62.5714448 85.595881,58.8620526 Z M56.8968847,85.6634844 C49.9446375,86.0524219 42.7219585,82.9528281 42.3658224,76.3137708 C42.1018501,71.3911979 45.8926894,65.8984479 57.3235422,65.2441333 C58.6326157,65.169124 59.9171833,65.1324792 61.1791094,65.1324792 C65.3311459,65.1324792 69.2154809,65.5331245 72.7468762,66.2999531 C71.4296784,82.6392969 63.7036275,85.2924062 56.8968847,85.6634844 Z" id="Shape"></path>
                </g>
            </g>
        </g>
    </g>
</svg>