<?xml version="1.0" encoding="UTF-8"?>
<svg width="200px" height="200px" viewBox="0 0 200 200" version="1.1" xmlns="http://www.w3.org/2000/svg" xmlns:xlink="http://www.w3.org/1999/xlink">
    <title>tiktok-circle</title>
    <g id="Prototypes-09.11.23" stroke="none" stroke-width="1" fill="none" fill-rule="evenodd">
        <g id="Icons-" transform="translate(-2173.000000, -310.000000)" fill-rule="nonzero">
            <g id="tiktok-circle" transform="translate(2173.000000, 310.000000)">
                <g id="BACKGROUND" fill="#000000">
                    <circle id="Oval" cx="100" cy="100" r="100"></circle>
                </g>
                <g id="ICONS" transform="translate(39.996756, 32.100000)">
                    <path d="M46.7299109,53.6 L46.7299109,48.1733334 C27.901634,45.5945764 9.75698699,56.2467098 2.83225125,73.9442246 C-4.09248451,91.6417395 2.00468705,111.779283 17.5832443,122.663333 C6.62324697,110.798482 3.61745264,93.61915 9.89778695,78.7378318 C16.1781213,63.8565135 30.5832225,54.0250684 46.7299109,53.6 L46.7299109,53.6 Z" id="Path" fill="#25F4EE"></path>
                    <path d="M47.6999109,113.546667 C57.8332443,113.546667 66.2132443,105.373333 66.5899109,95.3333334 L66.6699109,5.80333334 L82.9032443,5.80333334 L82.8799109,5.66666666 C82.5294078,3.79808863 82.3519896,1.90116596 82.3499109,0 L60.0032443,0 L59.9665775,89.6666666 C59.7375275,96.1171965 56.2090436,101.99717 50.624783,105.234118 C45.0405227,108.471067 38.1845148,108.610523 32.4732443,105.603333 C35.8765775,110.33 41.4265775,113.546667 47.6999109,113.546667 Z" id="Path" fill="#25F4EE"></path>
                    <path d="M113.483244,36.3733334 L113.483244,31.12 C107.463103,31.1257258 101.5722,29.3740945 96.5332443,26.08 C100.879911,31.0733334 106.783244,34.94 113.483244,36.3733334 Z" id="Path" fill="#25F4EE"></path>
                    <path d="M96.5332443,26.08 C91.5887728,20.4318547 88.8642754,13.1799528 88.8665775,5.67333334 L82.7832443,5.67333334 C84.3920949,14.065956 89.3589496,21.4373703 96.5332443,26.08 Z" id="Path" fill="#FE2C55"></path>
                    <path d="M41.1799109,69.97 C30.8099109,69.97 22.2499109,78.58 22.2499109,88.9466666 C22.2499109,96.17 26.4699109,102.443333 32.4565775,105.593333 C28.3214635,99.8744568 27.7429502,92.3196596 30.9591047,86.0378551 C34.1752592,79.7560506 40.6426744,75.8086236 47.6999109,75.82 C49.583516,75.8244736 51.4552873,76.1178863 53.2499109,76.69 L53.2499109,53.85 C51.4111299,53.5904904 49.556892,53.4557381 47.6999109,53.4466666 C47.3665775,53.4466666 47.0532443,53.4633334 46.7299109,53.4733334 L46.6432443,53.4733334 L46.5832443,70.76 C44.8344344,70.2161359 43.0112238,69.9495715 41.1799109,69.97 L41.1799109,69.97 Z" id="Path" fill="#FE2C55"></path>
                    <path d="M113.483244,36.1066666 L113.376578,36.0866666 L113.376578,53.36 C102.18641,53.3329738 91.2875941,49.7905961 82.2199109,43.2333334 L82.2199109,88.9366666 C82.1805539,104.2391 73.6571584,118.257149 60.0893223,125.333861 C46.5214859,132.410572 30.1480881,131.378191 17.5765776,122.653333 C29.0961445,135.052115 47.0323139,139.133446 62.7825332,132.939837 C78.5327527,126.746228 88.8846498,111.540912 88.8732443,94.6166666 L88.8732443,49.16 C97.9406457,55.6779848 108.82959,59.1766279 119.996578,59.16 L119.996578,36.8 C117.807126,36.7985816 115.623932,36.5661844 113.483244,36.1066666 L113.483244,36.1066666 Z" id="Path" fill="#FE2C55"></path>
                    <path d="M82.3565775,88.9466666 L82.3565775,43.4833334 C91.4254182,50.0009633 102.315294,53.4995312 113.483244,53.4833334 L113.483244,36.1066666 C106.897608,34.685398 100.95027,31.1672871 96.5332443,26.08 C89.3844105,21.4309145 84.4524879,14.0559192 82.8865775,5.67333334 L66.5065775,5.67333334 L66.4699109,95.34 C66.1736937,103.356696 60.8154187,110.298985 53.1353168,112.616569 C45.4552146,114.934153 37.1511805,112.114666 32.4699109,105.6 C24.8030793,101.587015 20.8667074,92.8581785 22.9344463,84.4552734 C25.0021852,76.0523684 32.5396699,70.1469533 41.1932443,70.15 C43.0765492,70.1550168 44.9480713,70.4472666 46.7432443,71.0166666 L46.7432443,53.4733334 C24.4865775,53.9933334 6.53656839,72.2466666 6.53656839,94.6266666 C6.5316451,105.037149 10.4854939,115.060001 17.5965776,122.663333 C30.167043,131.48261 46.6026721,132.567714 60.2234967,125.477623 C73.8443211,118.387533 82.3832975,104.302319 82.3699109,88.9466666 L82.3565775,88.9466666 Z" id="Path" fill="#FFFFFF"></path>
                </g>
            </g>
        </g>
    </g>
</svg>