<?xml version="1.0" encoding="UTF-8"?>
<svg width="200px" height="200px" viewBox="0 0 200 200" version="1.1" xmlns="http://www.w3.org/2000/svg" xmlns:xlink="http://www.w3.org/1999/xlink">
    <title>youtube-circle</title>
    <defs>
        <polygon id="path-1" points="0 0 125 0 125 87.955298 0 87.955298"></polygon>
    </defs>
    <g id="Prototypes-09.11.23" stroke="none" stroke-width="1" fill="none" fill-rule="evenodd">
        <g id="Icons-" transform="translate(-733.000000, -310.000000)">
            <g id="youtube-circle" transform="translate(733.000000, 310.000000)">
                <circle id="Oval" fill="#FF0000" fill-rule="nonzero" cx="100" cy="100" r="100"></circle>
                <g id="Fill-1-Clipped" transform="translate(37.500000, 56.054688)">
                    <mask id="mask-2" fill="white">
                        <use xlink:href="#path-1"></use>
                    </mask>
                    <g id="path-1"></g>
                    <path d="M49.6902354,62.5315623 L49.6902354,25.3953539 L82.3718313,43.9641676 L49.6902354,62.5315623 Z M122.386893,13.7105536 C120.948903,8.30239547 116.711663,4.04370154 111.331988,2.59835674 C101.580795,-0.0283818322 62.4786859,-0.0283818322 62.4786859,-0.0283818322 C62.4786859,-0.0283818322 23.3765771,-0.0283818322 13.6253837,2.59835674 C8.24570877,4.04370154 4.00846879,8.30239547 2.57047857,13.7105536 C-0.0426281688,23.5122193 -0.0426281688,43.963458 -0.0426281688,43.963458 C-0.0426281688,43.963458 -0.0426281688,64.4139873 2.57047857,74.2163625 C4.00846879,79.6245207 8.24570877,83.8832146 13.6253837,85.3292689 C23.3765771,87.955298 62.4786859,87.955298 62.4786859,87.955298 C62.4786859,87.955298 101.580795,87.955298 111.331988,85.3292689 C116.711663,83.8832146 120.948903,79.6245207 122.386893,74.2163625 C125,64.4139873 125,43.963458 125,43.963458 C125,43.963458 125,23.5122193 122.386893,13.7105536 L122.386893,13.7105536 Z" id="Fill-1" fill="#FFFFFE" fill-rule="nonzero" mask="url(#mask-2)"></path>
                </g>
            </g>
        </g>
    </g>
</svg>